<svg width="1064" height="848" viewBox="0 0 1064 848" fill="none" xmlns="http://www.w3.org/2000/svg">
<g clip-path="url(#clip0_316_47)">
<path d="M434.402 385.681C431.935 371.819 436.91 355.5 433.705 339.431C432.222 332.001 426.097 328.917 419.27 328.327C412.894 327.775 406.393 333.709 405.203 341.523C403.841 350.484 403.055 359.633 403.133 368.692C403.263 383.86 404.262 399.02 404.93 414.183C405.159 419.388 405.045 424.663 405.877 429.779C407.359 438.908 412.07 442.829 420.711 443.057C429.818 443.299 434.369 440.224 435.991 430.668C438.378 416.615 432.205 402.537 434.402 385.681V385.681ZM608.699 369.193C608.699 369.284 608.686 369.104 608.699 369.193C611.621 388.981 610.718 401.055 614.163 419.724C615.529 427.123 620.746 431.819 628.838 432.232C636.41 432.62 642.839 428.651 645.643 420.501C647.591 414.839 648.711 408.723 649.133 402.735C650.701 380.487 649.402 358.489 640.466 337.652C637.801 331.439 633.642 326.756 625.646 327.153C617.547 327.557 612.269 331.827 610.079 338.863C607.675 346.591 608.609 356.699 608.699 369.193V369.193ZM509.231 761.917C519.243 761.128 530.073 760.144 540.921 759.444C576.563 757.145 610.198 747.269 642.031 731.558C684.105 710.793 719.399 681.363 747.999 644.251C786.821 593.877 810.571 537.135 817.149 473.672C817.934 466.097 816.523 457.964 814.497 450.535C812.891 444.649 808.43 440.121 801.185 439.769C793.963 439.419 789.431 443.059 787.135 449.217C784.723 455.687 782.751 462.413 781.463 469.195C774.294 506.94 764.494 543.777 745.142 577.407C717.215 625.936 680.855 666.216 630.482 692.179C578.581 718.929 523.594 726.717 465.889 718.127C419.905 711.281 379.574 692.768 343.926 663.133C317.826 641.437 300.671 613.423 285.626 583.732C283.663 579.859 282.115 575.412 279.118 572.543C276.694 570.223 271.911 568.285 269.042 569.128C266.431 569.895 263.446 574.579 263.335 577.633C263.071 584.939 263.441 592.548 265.254 599.597C274.217 634.433 294.471 662.783 319.955 686.988C372.547 736.943 436.614 759.248 509.231 761.917ZM472.349 847.92C412.629 847.596 370.785 839.904 333.549 814.989C305.247 796.055 281.878 771.855 263.79 743.389C243.99 712.228 226.447 679.623 208.221 647.477C199.855 632.725 192.899 617.145 184.081 602.688C168.57 577.26 165.211 549.423 167.762 520.9C171.905 474.584 186.509 430.985 204.522 388.3C210.851 373.304 220.446 361.611 232.013 350.865C269.709 315.848 308.378 282.008 351.769 254.089C396.59 225.251 443.542 201.26 495.823 188.309C571.945 169.453 643.87 179.156 710.27 220.345C776.161 261.22 826.633 316.835 858.551 388.139C873.601 421.757 881.599 457.117 884.17 493.999C889.239 566.712 871.733 633.607 834.847 695.929C812.962 732.908 780.225 757.513 742.606 776.301C683.915 805.611 622.229 826.393 557.573 837.333C524.209 842.979 490.358 845.743 472.349 847.92Z" fill="#F08D13"/>
<path d="M509.23 761.917C436.613 759.248 372.546 736.943 319.954 686.988C294.47 662.783 274.216 634.433 265.253 599.597C263.44 592.548 263.07 584.939 263.334 577.633C263.445 574.579 266.43 569.895 269.041 569.128C271.91 568.286 276.693 570.223 279.117 572.543C282.114 575.412 283.662 579.859 285.625 583.732C300.67 613.423 317.825 641.437 343.925 663.133C379.573 692.768 419.904 711.281 465.888 718.127C523.593 726.717 578.579 718.929 630.481 692.179C680.854 666.216 717.214 625.936 745.141 577.407C764.493 543.778 774.293 506.94 781.462 469.195C782.75 462.414 784.722 455.687 787.134 449.217C789.43 443.059 793.962 439.419 801.184 439.77C808.429 440.122 812.89 444.65 814.496 450.535C816.522 457.964 817.933 466.097 817.147 473.672C810.57 537.135 786.82 593.877 747.998 644.251C719.398 681.363 684.104 710.793 642.03 731.559C610.197 747.27 576.562 757.146 540.92 759.444C530.072 760.144 519.242 761.128 509.23 761.917Z" fill="white"/>
<path d="M608.842 370.604C607.762 360.665 607.667 346.619 610.079 338.863C612.269 331.827 617.547 327.557 625.646 327.153C633.642 326.756 637.801 331.439 640.466 337.652C649.402 358.489 650.701 380.487 649.133 402.735C648.711 408.723 647.591 414.839 645.643 420.501C642.839 428.651 636.41 432.62 628.838 432.232C620.746 431.819 615.529 427.123 614.163 419.724C610.71 401.008 611.766 389.236 608.842 370.604Z" fill="white"/>
<path d="M434.402 385.681C433.94 391.764 438.378 416.615 435.991 430.668C434.368 440.224 429.818 443.299 420.711 443.057C412.07 442.829 407.359 438.908 405.876 429.779C405.044 424.663 405.159 419.388 404.93 414.183C404.262 399.02 403.263 383.86 403.132 368.692C403.055 359.633 403.84 350.484 405.203 341.523C406.392 333.709 412.894 327.775 419.27 328.327C426.096 328.917 432.222 332.001 433.704 339.431C436.91 355.5 434.402 385.681 434.402 385.681Z" fill="white"/>
<path d="M978.719 392.845C981.206 399.222 982.518 404.72 985.314 409.312C990.842 418.396 1008.57 421.824 1019.53 416.58C1027.06 412.976 1027.72 407.84 1022.33 393.98C1022.06 393.286 1021.12 392.854 1021.11 392.845C1007.12 392.845 993.775 392.845 978.719 392.845V392.845ZM910.016 394.922C912.364 401.608 913.526 407.082 916.098 411.786C921.482 421.636 940.207 426.018 952.315 420.837C960.686 417.254 961.49 411.921 955.94 396.076C955.696 395.38 954.783 394.917 954.79 394.922C939.988 394.922 925.815 394.922 910.016 394.922V394.922ZM872.598 334.668C876.787 331.548 880.928 332.172 884.403 335.546C890.359 341.332 897.566 341.389 905.111 341.146C935.163 340.178 965.22 339.321 995.278 338.553C1001.54 338.393 1006.85 337.325 1011.79 332.538C1017.3 327.197 1021.48 328.495 1024.87 335.531C1026.92 339.807 1028.24 344.46 1029.68 349.01C1036.34 370.136 1043.44 391.147 1049.32 412.488C1052.06 422.392 1053.46 432.952 1053.53 443.228C1053.62 456.299 1047.59 466.901 1034.9 472.095C1022.37 477.223 1009.94 476.308 999.143 467.82C993.44 463.337 988.939 457.324 983.467 451.55C981.519 462.28 978.102 472.461 966.974 477.025C955.206 481.853 943.311 482.119 931.654 476.295C929.89 475.621 928.124 474.949 926.359 474.277C914.728 465.025 907.447 452.76 902.939 438.918C892.864 407.993 883.144 376.95 873.423 345.91C872.675 343.526 873.048 340.79 872.9 338.218C872.799 337.036 872.699 335.852 872.598 334.668" fill="white"/>
<path d="M24.3695 544.745C37.3611 547.481 50.1518 550.174 63.3065 552.945C63.3909 531.236 56.6513 523.529 38.2133 522.265C28.8669 521.625 24.4939 525.296 23.7669 534.8C23.5403 537.764 24.1033 540.786 24.3695 544.745V544.745ZM9.45177 604.162C3.32991 602.149 2.45855 597.021 2.27939 591.637C1.395 565.077 0.152818 538.517 0.000735136 511.952C-0.0450982 503.906 2.05751 495.503 4.83199 487.864C9.42625 475.22 18.2049 466.34 32.5346 465.487C47.7799 464.579 59.5819 470.91 67.3357 484.145C69.7221 488.22 71.3699 492.726 73.7434 497.874C81.0529 476.204 96.0805 481.381 110.686 483.514C115.272 484.184 119.67 481.421 121.172 477.036L122.986 471.742C131.417 469.341 136.978 474.244 141.24 480.401C150.84 494.267 151.872 509.601 146.623 525.24C143.384 534.885 135.972 540.158 125.703 539.806C118.81 539.57 111.929 538.19 105.103 536.98C88.7199 534.076 85.6882 536.568 85.9466 553.256C85.9663 554.544 86.2409 555.829 86.571 558.55C99.0778 561.618 111.937 565.116 124.977 567.696C127.731 568.241 131.403 565.832 134.19 564.057C137.011 562.258 139.258 559.56 143.439 555.705C149.164 557.881 149.164 557.881 149.138 572.212C149.099 593.544 150.703 608.408 151.139 629.737C151.198 632.62 150.242 636.069 147.346 638.889C144.37 637.682 142.118 637.506 141.378 636.357C134.335 625.414 123.14 622.856 111.495 620.186C87.359 614.652 63.4158 608.28 39.3695 602.348C23.5581 598.446 23.5398 598.521 9.45177 604.162" fill="white"/>
<path d="M204.286 283.208C209.307 287.082 216.58 286.893 220.904 282.252C225.291 277.542 225.471 273.073 222.583 265.292C211.719 236.016 194.038 210.928 172.915 188.178C169.21 184.188 163.679 180.63 159.187 184.35C155.432 187.46 152.535 193.648 152.402 198.557C152.246 204.288 154.363 210.833 157.483 215.768C170.667 236.621 184.331 257.188 198.435 277.43C199.97 279.634 202.032 281.47 204.286 283.208V283.208ZM256.984 236.656C256.047 269.43 242.592 294.82 217.855 313.958C198.551 328.893 177.638 329.028 159.076 313.989C122.051 283.986 96.3524 222.386 142.458 168.681C146.947 163.452 152.156 158.633 157.723 154.569C178.047 139.73 199.583 140.089 218.562 156.658C242.963 177.961 255.979 205.15 256.984 236.656" fill="white"/>
<path d="M522.554 46.5091C521.926 46.3585 526.007 27.1931 514.475 24.3544C509.806 23.2051 503.123 25.2664 499.559 28.4571C495.343 32.2318 492.358 38.3811 490.883 44.0344C486.084 62.4184 481.91 80.9838 478.135 99.6078C476.512 107.621 476.043 115.944 475.847 124.144C475.723 129.3 476.67 135.037 482.78 136.813C488.682 138.528 494.374 136.773 497.82 131.724C501.428 126.438 505.139 120.702 506.688 114.624C512.448 92.0384 517.338 69.2318 522.554 46.5091V46.5091ZM477.778 158.146C472.28 157.713 466.991 157.8 461.911 156.809C435.516 151.666 420.802 132.79 421.486 104.238C421.915 86.2985 425.744 68.9318 433.767 52.7171C452.912 14.0185 499.891 -8.08288 539.808 2.74246C560.998 8.48779 572.902 22.4798 575.142 44.2718C580.787 99.1958 546.823 146.425 494.352 156.398C488.831 157.448 483.14 157.602 477.778 158.146" fill="white"/>
<path d="M61.2137 337.213C52.9294 344.946 53.6049 352.084 57.8836 358.806C61.1018 363.864 64.9533 369 69.6965 372.52C88.4648 386.445 107.642 399.825 126.814 413.198C129.581 415.129 133.066 416.169 136.354 417.186C146.514 420.329 153.463 415.268 151.041 405.049C149.454 398.36 145.099 391.478 140.113 386.597C121.749 368.62 80.0762 342.605 78.6366 341.612C73.0538 337.761 67.9632 334.505 61.2137 337.213V337.213ZM30.0898 367.32C30.694 347.222 35.7246 328.553 46.9502 311.906C59.9674 292.604 79.332 286.1 101.59 292.908C161.303 311.172 190.746 376.544 164.192 431.908C149.531 462.476 123.162 472.437 92.9976 457.514C62.5112 442.434 39.9174 419.992 32.3956 385.362C31.1137 379.46 30.833 373.34 30.0898 367.32" fill="white"/>
<path d="M926.359 474.277C928.124 474.949 929.889 475.621 931.653 476.294C931.335 485.201 937.211 489.422 944.365 491.918C975.101 502.638 1005.8 513.505 1036.85 523.262C1043.15 525.244 1050.89 522.657 1059.59 522.068C1063.86 524.1 1063.89 529.39 1063.61 534.674C1061.91 567.725 1060.4 600.79 1058.26 633.813C1057.37 647.562 1049.98 652.244 1036.92 648.422C1029.84 646.352 1022.91 643.772 1015.96 641.301C1010.31 639.296 1007.93 635.041 1008 629.184C1008.09 622.876 1010.55 618.134 1016.91 616.342C1023.51 614.482 1030.21 612.957 1037.46 611.137C1038.26 601.282 1038.99 592.256 1039.83 581.856C1027.3 577.476 1014.73 573.084 1002.17 568.697C998.351 576.748 1001.89 582.38 1006.63 587.996C1011.79 594.102 1016.76 600.536 1009.65 610.225C1006.87 610.006 1002.95 610.364 999.475 609.289C991.191 606.732 983.163 603.358 974.94 600.585C969.265 598.67 964.497 596.202 963.824 589.398C963.115 582.221 967.795 579.229 973.425 577.36C980.972 574.856 983.844 570.165 981.333 561.668C967.013 556.857 952.312 551.918 937.055 546.794C933.043 563.292 934.476 577.078 948.583 587.866C953.284 591.462 957.987 596.421 959.983 601.768C961.669 606.281 960.783 612.906 958.599 617.418C956.023 622.737 950.489 619.942 945.795 618.666C940.028 617.1 934.017 616.432 928.113 615.374C925.3 614.426 922.487 613.477 919.672 612.528C913.101 603.316 911.567 593.161 912.329 581.936C914.451 550.706 915.911 519.432 917.475 488.166C917.8 481.657 918.781 475.961 926.359 474.277" fill="white"/>
<path d="M109.523 707.265C103.572 692.82 100.641 688.217 94.3237 686.419C80.9675 682.616 67.7076 684.201 54.9753 689.268C48.8836 691.692 46.8956 696.899 48.9628 703.159C50.1221 706.673 51.9024 709.983 53.4877 713.576C72.4539 711.44 90.4019 709.419 109.523 707.265ZM130.392 704.559C139.748 703.489 148.866 702.951 157.735 701.173C161.062 700.507 164.306 697.381 166.678 694.603C168.79 692.128 170.804 689.005 172.05 683.343C180.066 682.896 180.43 688.313 181.79 691.381C190.23 710.431 198.331 729.644 205.856 749.077C208.412 755.677 207.751 756.455 205.995 759.46C205.995 759.46 201.294 761.739 195.792 757.968C188.927 753.263 182.112 752.975 174.639 753.836C143.496 757.429 112.333 760.863 81.2363 764.822C77.3148 765.32 73.2721 768.016 70.1044 770.67C61.9409 777.512 58.2789 777.7 54.3915 768.618C42.9445 741.877 31.2211 715.186 21.4456 687.819C13.8779 666.632 20.7476 648.512 36.9284 640.127C46.7815 635.021 57.4623 633.107 68.5815 634.587C83.0763 636.516 95.3607 643.092 103.984 654.681C110.927 664.012 116.436 674.472 122.003 684.745C125.281 690.792 127.431 697.449 130.392 704.559Z" fill="white"/>
<path d="M919.672 612.528C922.487 613.477 925.3 614.427 928.114 615.375C936.163 622.436 943.703 630.216 952.391 636.376C963.39 644.175 962.876 659.225 946.794 663.624C939.686 665.567 932.612 667.645 925.571 669.816C916.547 672.6 910.499 678.815 908.23 687.727C907.3 691.375 908.122 696.532 910.2 699.62C912.982 703.749 918.142 704.733 923.047 702.129C927.248 699.9 931.478 697.669 935.43 695.043C942.304 690.472 948.803 685.323 955.768 680.904C971.234 671.092 987.227 668.628 1003.55 678.933C1020.29 689.508 1027.1 705.249 1025.72 724.491C1024.36 743.513 1015.74 759.329 1002.28 772.613C999.51 775.351 996.572 777.921 993.21 781.032C995.304 792.544 1001.63 805.525 985.779 814.309C972.68 807.206 961.948 797.042 951.25 787.048C946.094 782.231 947.755 774.789 954.594 770.591C959.31 767.695 965.115 766.637 970.115 764.125C977.408 760.461 985.098 757.071 991.362 752.01C998.124 746.545 998.763 738.4 994.784 733.448C991.074 728.83 984.56 728.123 977.03 732.817C965.611 739.934 954.972 748.335 943.39 755.148C917.967 770.105 888.234 758.565 879.386 730.452C875.65 718.58 876.407 706.46 879.911 694.471C885.62 674.931 896.135 659.044 914.782 648.741C913.142 643.013 911.311 637.752 910.155 632.345C908.084 622.653 910.65 617.66 919.672 612.528Z" fill="white"/>
<path d="M270.42 238.896C270.843 234.329 270.249 230.393 271.672 227.424C274.948 220.591 274.295 214.18 272.451 207.187C265.139 179.465 257.987 151.699 251.233 123.837C249.119 115.116 247.051 106.996 237.952 102.841C236.619 102.232 232.896 99.7987 230.967 97.0373C234.828 93.6387 241.212 90.0267 245.416 87.5414C272.723 71.3961 300.125 55.4067 327.691 39.7107C342.869 31.0681 349.801 34.1201 354.443 50.7161C355.963 56.1534 357.26 61.6627 358.413 67.1894C360.255 76.0174 358.143 80.3787 351.043 84.5787C344.14 88.6614 338.635 86.4827 333.456 81.4814C329.731 77.8814 325.943 74.3467 321.271 69.9187C313.164 74.3934 305.345 78.7081 296.643 83.5107C300.392 98.1227 304.019 112.26 307.645 126.397C308.573 126.749 309.501 127.101 310.429 127.453C313.185 123.577 316.324 119.911 318.599 115.769C321.297 110.86 322.447 104.908 325.811 100.619C328.088 97.7174 333.155 95.3587 336.733 95.656C339.472 95.884 343.171 100.252 344.121 103.467C347.567 115.113 350.22 127.008 352.784 138.893C353.919 144.148 353.451 149.26 348.235 152.811C342.973 156.391 338.141 154.6 333.612 151.791C327.156 147.788 321 142.904 313.888 151.605C316.091 160.015 318.791 168.729 320.581 177.627C322.185 185.596 324.877 191.545 334.219 192.416C336.672 192.645 338.885 195.467 341.139 197.048C335.319 207.896 286.925 237.088 270.42 238.896" fill="white"/>
<path d="M627.474 15.3491C631.254 12.4518 631.254 12.4518 640.247 15.4798C671.527 26.0091 704.28 31.5291 736.175 40.0184C751.088 43.9891 754.131 51.8771 746.774 65.2651C743.636 70.9731 740.326 76.5957 736.87 82.1171C733.255 87.8917 728.176 90.3104 721.284 88.3864C714.782 86.5704 710.483 83.0691 710.124 75.8158C709.826 69.7704 709.304 63.7344 708.8 56.5438C704.102 55.2224 699.651 53.913 695.167 52.7264C691.03 51.633 686.856 50.6717 681.804 49.4344C674.236 62.3997 666.908 74.9531 659.58 87.5078C660.176 88.4531 660.774 89.3984 661.37 90.3438C666.884 89.0184 672.447 87.8637 677.898 86.3171C682.852 84.9117 687.6 82.0837 692.591 81.657C701.316 80.913 706.368 87.4144 702.53 95.0024C696.468 106.988 689.592 118.677 681.914 129.692C675.976 138.209 665.447 136.169 661.351 126.544C660.336 124.16 659.884 121.54 659.112 119.048C656.87 111.82 656.858 111.824 646.852 109.285C641.499 118.296 635.435 127.289 630.783 136.961C629.038 140.592 630.082 145.88 630.794 150.26C631.246 153.038 633.428 155.536 634.571 157.668C632.095 164.694 626.855 164.034 622.335 162.93C602.516 158.093 582.747 153.028 563.103 147.536C560.398 146.778 556.794 143.22 556.708 140.849C556.628 138.597 560.21 135.044 562.9 134.086C570.511 131.378 574.712 125.866 578.51 119.258C591.282 97.0344 604.342 74.9757 617.311 52.8651C627.536 35.4317 627.548 35.4398 627.474 15.3491" fill="white"/>
<path d="M838.776 197.98C844.985 196.278 849.588 195.369 853.932 193.762C868.588 188.338 882.981 182.138 897.824 177.308C905.507 174.808 914.011 173.145 921.992 173.622C935.659 174.44 947.457 188.772 945.531 200.106C943.135 214.204 928.053 224.042 914.133 220.558C904.033 218.03 899.548 210.524 897.485 200.065C879.268 206.457 861.704 212.558 844.184 218.785C828.637 224.312 813.149 230 797.615 235.56C795.161 236.437 792.625 237.116 790.087 237.71C781.675 239.681 773.469 240.078 767.376 232.486C761.399 225.04 764.52 217.594 768.408 210.612C783.841 182.897 799.448 155.278 815.016 127.638C819.289 120.053 823.176 112.79 822.227 103.21C821.376 94.6145 827.899 91.7065 835.067 97.3385C850.128 109.172 864.939 121.361 879.307 134.025C886.108 140.021 884.704 145.933 875.776 148.053C867.923 149.917 864.156 154.788 860.603 160.972C853.911 172.62 846.969 184.124 838.776 197.98" fill="white"/>
<path d="M872.597 334.668C872.699 335.852 872.799 337.036 872.9 338.219C864.347 339.32 858.567 336.059 853.932 328.497C846 315.555 836.98 303.283 828.583 290.619C826.267 287.124 824.54 283.237 822.883 280.164C826.68 273.207 831.307 275.473 836.068 275.952C842.281 276.576 849.056 277.301 854.84 275.533C882.592 267.045 910.067 257.656 937.696 248.757C946.141 246.037 954.116 243.107 957.647 233.811C958.139 232.515 959.664 231.029 961.529 231.029C973.311 237.028 1002.93 280.957 1003.37 294.176C999.597 293.935 995.489 294.721 992.456 293.267C985.415 289.891 979.007 291.428 972.293 293.677C943.541 303.311 914.759 312.856 885.987 322.429C879.701 324.52 873.401 326.587 872.597 334.668" fill="white"/>
<path d="M24.3701 544.745C24.1038 540.787 23.5409 537.764 23.7674 534.8C24.4945 525.296 28.8674 521.625 38.2138 522.265C56.6518 523.529 63.3914 531.236 63.307 552.945C50.1523 550.175 37.3617 547.481 24.3701 544.745" fill="#F5F5F4"/>
</g>
<defs>
<clipPath id="clip0_316_47">
<rect width="1063.71" height="847.92" fill="white"/>
</clipPath>
</defs>
</svg>
